<mxfile host="app.diagrams.net" agent="Mozilla/5.0 (Windows NT 10.0; Win64; x64) AppleWebKit/537.36 (KHTML, like Gecko) Chrome/131.0.0.0 Safari/537.36" version="25.0.1">
  <diagram id="CkrtvaEqqd28RR8YNMZq" name="Page-1">
    <mxGraphModel dx="2150" dy="870" grid="1" gridSize="10" guides="1" tooltips="1" connect="1" arrows="1" fold="1" page="1" pageScale="1" pageWidth="827" pageHeight="1169" math="0" shadow="0">
      <root>
        <mxCell id="0" />
        <mxCell id="1" parent="0" />
        <mxCell id="YQ2GbKQZIIJU6dviyKIE-2" style="edgeStyle=orthogonalEdgeStyle;rounded=0;orthogonalLoop=1;jettySize=auto;html=1;exitX=0.5;exitY=1;exitDx=0;exitDy=0;" edge="1" parent="1" source="YQ2GbKQZIIJU6dviyKIE-1" target="YQ2GbKQZIIJU6dviyKIE-3">
          <mxGeometry relative="1" as="geometry">
            <mxPoint x="80" y="280" as="targetPoint" />
          </mxGeometry>
        </mxCell>
        <mxCell id="YQ2GbKQZIIJU6dviyKIE-6" style="edgeStyle=orthogonalEdgeStyle;rounded=0;orthogonalLoop=1;jettySize=auto;html=1;exitX=0.5;exitY=1;exitDx=0;exitDy=0;entryX=0.5;entryY=0;entryDx=0;entryDy=0;" edge="1" parent="1" source="YQ2GbKQZIIJU6dviyKIE-1" target="YQ2GbKQZIIJU6dviyKIE-4">
          <mxGeometry relative="1" as="geometry" />
        </mxCell>
        <mxCell id="YQ2GbKQZIIJU6dviyKIE-7" style="edgeStyle=orthogonalEdgeStyle;rounded=0;orthogonalLoop=1;jettySize=auto;html=1;exitX=0.5;exitY=1;exitDx=0;exitDy=0;" edge="1" parent="1" source="YQ2GbKQZIIJU6dviyKIE-1" target="YQ2GbKQZIIJU6dviyKIE-5">
          <mxGeometry relative="1" as="geometry" />
        </mxCell>
        <mxCell id="YQ2GbKQZIIJU6dviyKIE-10" style="edgeStyle=orthogonalEdgeStyle;rounded=0;orthogonalLoop=1;jettySize=auto;html=1;exitX=0.5;exitY=1;exitDx=0;exitDy=0;entryX=0.5;entryY=0;entryDx=0;entryDy=0;" edge="1" parent="1" source="YQ2GbKQZIIJU6dviyKIE-1" target="YQ2GbKQZIIJU6dviyKIE-8">
          <mxGeometry relative="1" as="geometry" />
        </mxCell>
        <mxCell id="YQ2GbKQZIIJU6dviyKIE-11" style="edgeStyle=orthogonalEdgeStyle;rounded=0;orthogonalLoop=1;jettySize=auto;html=1;exitX=0.5;exitY=1;exitDx=0;exitDy=0;entryX=0.5;entryY=0;entryDx=0;entryDy=0;" edge="1" parent="1" source="YQ2GbKQZIIJU6dviyKIE-1" target="YQ2GbKQZIIJU6dviyKIE-9">
          <mxGeometry relative="1" as="geometry" />
        </mxCell>
        <mxCell id="YQ2GbKQZIIJU6dviyKIE-1" value="KANO" style="rounded=0;whiteSpace=wrap;html=1;" vertex="1" parent="1">
          <mxGeometry x="340" y="140" width="120" height="60" as="geometry" />
        </mxCell>
        <mxCell id="YQ2GbKQZIIJU6dviyKIE-3" value="Research" style="rounded=0;whiteSpace=wrap;html=1;" vertex="1" parent="1">
          <mxGeometry x="20" y="250" width="120" height="60" as="geometry" />
        </mxCell>
        <mxCell id="YQ2GbKQZIIJU6dviyKIE-4" value="Planning" style="rounded=0;whiteSpace=wrap;html=1;" vertex="1" parent="1">
          <mxGeometry x="180" y="250" width="120" height="60" as="geometry" />
        </mxCell>
        <mxCell id="YQ2GbKQZIIJU6dviyKIE-5" value="Testing" style="rounded=0;whiteSpace=wrap;html=1;" vertex="1" parent="1">
          <mxGeometry x="490" y="250" width="120" height="60" as="geometry" />
        </mxCell>
        <mxCell id="YQ2GbKQZIIJU6dviyKIE-8" value="Prototype/MVP" style="rounded=0;whiteSpace=wrap;html=1;" vertex="1" parent="1">
          <mxGeometry x="340" y="250" width="120" height="60" as="geometry" />
        </mxCell>
        <mxCell id="YQ2GbKQZIIJU6dviyKIE-9" value="Final Product" style="rounded=0;whiteSpace=wrap;html=1;" vertex="1" parent="1">
          <mxGeometry x="640" y="250" width="120" height="60" as="geometry" />
        </mxCell>
        <mxCell id="YQ2GbKQZIIJU6dviyKIE-12" value="Tutorials" style="rounded=0;whiteSpace=wrap;html=1;" vertex="1" parent="1">
          <mxGeometry x="50" y="330" width="120" height="60" as="geometry" />
        </mxCell>
        <mxCell id="YQ2GbKQZIIJU6dviyKIE-13" value="UML Diagrams" style="rounded=0;whiteSpace=wrap;html=1;" vertex="1" parent="1">
          <mxGeometry x="50" y="410" width="120" height="60" as="geometry" />
        </mxCell>
        <mxCell id="YQ2GbKQZIIJU6dviyKIE-14" value="Literary Review" style="rounded=0;whiteSpace=wrap;html=1;" vertex="1" parent="1">
          <mxGeometry x="50" y="490" width="120" height="60" as="geometry" />
        </mxCell>
        <mxCell id="YQ2GbKQZIIJU6dviyKIE-15" value="Systems Used" style="rounded=0;whiteSpace=wrap;html=1;" vertex="1" parent="1">
          <mxGeometry x="50" y="570" width="120" height="60" as="geometry" />
        </mxCell>
      </root>
    </mxGraphModel>
  </diagram>
</mxfile>
